<?xml version="1.0" encoding="utf-8"?>
<!-- Generator: Adobe Illustrator 21.0.0, SVG Export Plug-In . SVG Version: 6.00 Build 0)  -->
<svg version="1.1" id="Layer_1" xmlns="http://www.w3.org/2000/svg" xmlns:xlink="http://www.w3.org/1999/xlink" x="0px" y="0px"
	 viewBox="0 0 2279 700.8" style="enable-background:new 0 0 2279 700.8;" xml:space="preserve">
<style type="text/css">
	.st0{opacity:0.56;}
	.st1{fill:#D3D3D3;}
	.st2{fill:#EE6A50;fill-opacity:0.3;}
	.st3{fill:none;stroke:#EE6A50;stroke-width:2.13;stroke-linejoin:round;stroke-miterlimit:10;}
	.st4{fill:none;stroke:#66CDAA;stroke-width:1.07;stroke-linejoin:round;stroke-miterlimit:10;stroke-dasharray:5.69,5.69;}
	.st5{fill:none;stroke:#000000;stroke-miterlimit:10;}
	.st6{fill:none;stroke:#333333;stroke-width:1.07;stroke-linejoin:round;stroke-miterlimit:10;}
	.st7{font-family:'ArialMT';}
	.st8{font-size:23px;}
	.st9{font-size:30px;}
	.st10{fill:none;stroke:#000000;stroke-width:1.07;stroke-linejoin:round;stroke-miterlimit:10;}
	
		.st11{clip-path:url(#SVGID_4_);fill:none;stroke:#C6E2FF;stroke-width:2.13;stroke-linejoin:round;stroke-miterlimit:10;stroke-opacity:0.6;}
	
		.st12{clip-path:url(#SVGID_6_);fill:none;stroke:#C6E2FF;stroke-width:2.13;stroke-linejoin:round;stroke-miterlimit:10;stroke-opacity:0.6;}
	
		.st13{clip-path:url(#SVGID_8_);fill:none;stroke:#C6E2FF;stroke-width:2.13;stroke-linejoin:round;stroke-miterlimit:10;stroke-opacity:0.6;}
	
		.st14{clip-path:url(#SVGID_10_);fill:none;stroke:#C6E2FF;stroke-width:2.13;stroke-linejoin:round;stroke-miterlimit:10;stroke-opacity:0.6;}
	
		.st15{clip-path:url(#SVGID_12_);fill:none;stroke:#C6E2FF;stroke-width:2.13;stroke-linejoin:round;stroke-miterlimit:10;stroke-opacity:0.6;}
	
		.st16{clip-path:url(#SVGID_14_);fill:none;stroke:#C6E2FF;stroke-width:2.13;stroke-linejoin:round;stroke-miterlimit:10;stroke-opacity:0.6;}
	
		.st17{clip-path:url(#SVGID_16_);fill:none;stroke:#C6E2FF;stroke-width:2.13;stroke-linejoin:round;stroke-miterlimit:10;stroke-opacity:0.6;}
	
		.st18{clip-path:url(#SVGID_18_);fill:none;stroke:#C6E2FF;stroke-width:2.13;stroke-linejoin:round;stroke-miterlimit:10;stroke-opacity:0.6;}
	
		.st19{clip-path:url(#SVGID_20_);fill:none;stroke:#C6E2FF;stroke-width:2.13;stroke-linejoin:round;stroke-miterlimit:10;stroke-opacity:0.6;}
	
		.st20{clip-path:url(#SVGID_22_);fill:none;stroke:#C6E2FF;stroke-width:2.13;stroke-linejoin:round;stroke-miterlimit:10;stroke-opacity:0.6;}
	
		.st21{clip-path:url(#SVGID_24_);fill:none;stroke:#C6E2FF;stroke-width:2.13;stroke-linejoin:round;stroke-miterlimit:10;stroke-opacity:0.6;}
	
		.st22{clip-path:url(#SVGID_26_);fill:none;stroke:#C6E2FF;stroke-width:2.13;stroke-linejoin:round;stroke-miterlimit:10;stroke-opacity:0.6;}
	.st23{clip-path:url(#SVGID_28_);fill:#C6E2FF;fill-opacity:0.6;}
	.st24{clip-path:url(#SVGID_30_);fill:#C6E2FF;fill-opacity:0.6;}
	.st25{clip-path:url(#SVGID_32_);fill:#C6E2FF;fill-opacity:0.6;}
	.st26{clip-path:url(#SVGID_34_);fill:#C6E2FF;fill-opacity:0.6;}
	.st27{clip-path:url(#SVGID_36_);fill:#C6E2FF;fill-opacity:0.6;}
	.st28{clip-path:url(#SVGID_38_);fill:#C6E2FF;fill-opacity:0.6;}
	.st29{clip-path:url(#SVGID_40_);fill:#C6E2FF;fill-opacity:0.6;}
	.st30{opacity:0.5;fill:#BEBEBE;}
	.st31{clip-path:url(#SVGID_42_);fill:none;stroke:#EE6A50;stroke-width:2.13;stroke-linejoin:round;stroke-miterlimit:10;}
	
		.st32{clip-path:url(#SVGID_48_);fill:none;stroke:#66CDAA;stroke-width:1.07;stroke-linejoin:round;stroke-miterlimit:10;stroke-dasharray:5.69,5.69;}
	
		.st33{clip-path:url(#SVGID_50_);fill:none;stroke:#66CDAA;stroke-width:1.07;stroke-linejoin:round;stroke-miterlimit:10;stroke-dasharray:5.69,5.69;}
	
		.st34{clip-path:url(#SVGID_52_);fill:none;stroke:#ADD8E6;stroke-width:1.07;stroke-linejoin:round;stroke-miterlimit:10;stroke-dasharray:5.69,5.69;}
	
		.st35{clip-path:url(#SVGID_54_);fill:none;stroke:#FFA500;stroke-width:1.07;stroke-linejoin:round;stroke-miterlimit:10;stroke-dasharray:5.69,5.69;}
	
		.st36{clip-path:url(#SVGID_56_);fill:none;stroke:#ADD8E6;stroke-width:1.07;stroke-linejoin:round;stroke-miterlimit:10;stroke-dasharray:5.69,5.69;}
	
		.st37{clip-path:url(#SVGID_58_);fill:none;stroke:#ADD8E6;stroke-width:1.07;stroke-linejoin:round;stroke-miterlimit:10;stroke-dasharray:5.69,5.69;}
	
		.st38{clip-path:url(#SVGID_60_);fill:none;stroke:#FFA500;stroke-width:1.07;stroke-linejoin:round;stroke-miterlimit:10;stroke-dasharray:5.69,5.69;}
	
		.st39{clip-path:url(#SVGID_62_);fill:none;stroke:#ADD8E6;stroke-width:1.07;stroke-linejoin:round;stroke-miterlimit:10;stroke-dasharray:5.69,5.69;}
	
		.st40{clip-path:url(#SVGID_64_);fill:none;stroke:#333333;stroke-width:1.07;stroke-linecap:round;stroke-linejoin:round;stroke-miterlimit:10;}
</style>
<g class="st0">
	<polygon class="st1" points="852.2,479 697.8,479 697.8,468.1 504.9,468.1 504.9,405 389.1,405 389.1,402.9 350.5,402.9 350.5,164 
		273.3,164 273.3,156.7 234.7,156.7 234.7,91.5 157.5,91.5 157.5,79.6 157.5,79.6 157.5,79.6 234.7,79.6 234.7,79.6 234.7,79.6 
		234.7,79.6 273.3,79.6 273.3,79.6 273.3,79.6 273.3,79.6 350.5,79.6 350.5,79.6 350.5,79.6 350.5,79.6 389.1,79.6 389.1,79.6 
		389.1,79.6 389.1,212.7 504.9,212.7 504.9,277.4 504.9,277.4 504.9,278.9 543.5,278.9 543.5,278.9 543.5,278.9 543.5,285.4 
		582,285.4 582,285.4 582,285.4 582,395.3 697.8,395.3 697.8,395.3 697.8,395.3 697.8,409 736.5,409 736.5,409 736.5,409 
		736.5,424.4 775,424.4 775,424.4 775,424.4 775,443.4 813.6,443.4 813.6,443.4 813.6,443.4 813.6,443.4 852.2,443.4 852.2,443.4 
		852.2,443.4 852.2,467.1 	"/>
</g>
<g>
	<rect x="234.7" y="79.7" class="st2" width="38.6" height="28.1"/>
</g>
<g>
	<rect x="350.5" y="107.7" class="st2" width="38.6" height="240"/>
</g>
<g>
	<rect x="504.9" y="347.7" class="st2" width="38.6" height="34"/>
</g>
<g>
	<rect x="543.5" y="381.6" class="st2" width="38.6" height="63.7"/>
</g>
<g>
	<polygon class="st2" points="582,445.3 697.8,445.3 697.8,445.3 	"/>
</g>
<g>
	<rect x="736.5" y="452" class="st2" width="38.6" height="15.3"/>
</g>
<g>
	<rect x="813.6" y="467.3" class="st2" width="38.6" height="11.6"/>
</g>
<g>
	<line class="st3" x1="157.5" y1="79.7" x2="234.7" y2="79.7"/>
</g>
<g>
	<line class="st3" x1="234.7" y1="79.7" x2="273.3" y2="107.7"/>
</g>
<g>
	<line class="st3" x1="273.3" y1="107.7" x2="350.5" y2="107.7"/>
</g>
<g>
	<line class="st3" x1="350.5" y1="107.7" x2="389.1" y2="347.7"/>
</g>
<g>
	<line class="st3" x1="389.1" y1="347.7" x2="504.9" y2="347.7"/>
</g>
<g>
	<line class="st3" x1="504.9" y1="347.7" x2="543.5" y2="381.6"/>
</g>
<g>
	<line class="st3" x1="543.5" y1="381.6" x2="582" y2="445.3"/>
</g>
<g>
	<line class="st3" x1="582" y1="445.3" x2="697.8" y2="445.3"/>
</g>
<g>
	<line class="st3" x1="697.8" y1="445.3" x2="736.5" y2="452"/>
</g>
<g>
	<line class="st3" x1="736.5" y1="452" x2="775" y2="467.3"/>
</g>
<g>
	<line class="st3" x1="775" y1="467.3" x2="813.6" y2="467.3"/>
</g>
<g>
	<line class="st3" x1="813.6" y1="467.3" x2="852.2" y2="479"/>
</g>
<g>
	<line class="st4" x1="118.9" y1="279.3" x2="968" y2="279.3"/>
</g>
<g>
	<polyline class="st5" points="968,498.9 118.9,498.9 118.9,59.7 	"/>
</g>
<g>
	<line class="st6" x1="113.9" y1="479" x2="118.9" y2="479"/>
</g>
<g>
	<line class="st6" x1="113.9" y1="379.1" x2="118.9" y2="379.1"/>
</g>
<g>
	<line class="st6" x1="113.9" y1="279.3" x2="118.9" y2="279.3"/>
</g>
<g>
	<line class="st6" x1="113.9" y1="179.5" x2="118.9" y2="179.5"/>
</g>
<g>
	<line class="st6" x1="113.9" y1="79.7" x2="118.9" y2="79.7"/>
</g>
<g>
	<line class="st6" x1="157.5" y1="503.9" x2="157.5" y2="498.9"/>
</g>
<g>
	<line class="st6" x1="350.5" y1="503.9" x2="350.5" y2="498.9"/>
</g>
<g>
	<line class="st6" x1="543.5" y1="503.9" x2="543.5" y2="498.9"/>
</g>
<g>
	<line class="st6" x1="736.5" y1="503.9" x2="736.5" y2="498.9"/>
</g>
<g>
	<line class="st6" x1="929.4" y1="503.9" x2="929.4" y2="498.9"/>
</g>
<text transform="matrix(1 0 0 1 491.5 552)" class="st7 st8">Time (days)</text>
<text transform="matrix(-1.836970e-16 -1 1 -1.836970e-16 43.4172 407.3512)" class="st7 st8">Incubation period probability</text>
<text transform="matrix(1 0 0 1 152 524.2159)" class="st7 st8">0</text>
<text transform="matrix(1 0 0 1 345 524.2159)" class="st7 st8">5</text>
<text transform="matrix(1 0 0 1 532 524.2159)" class="st7 st8">10</text>
<text transform="matrix(1 0 0 1 726 524.2159)" class="st7 st8">15</text>
<text transform="matrix(1 0 0 1 919 524.2157)" class="st7 st8">20</text>
<text transform="matrix(1 0 0 1 65.2107 85.3743)" class="st7 st8">1.00</text>
<text transform="matrix(1 0 0 1 65.2107 184.2042)" class="st7 st8">0.75</text>
<text transform="matrix(1 0 0 1 65.2104 286.0342)" class="st7 st8">0.50</text>
<text transform="matrix(1 0 0 1 65.2104 384.8641)" class="st7 st8">0.25</text>
<text transform="matrix(1 0 0 1 65.2103 484.6839)" class="st7 st8">0.00</text>
<text transform="matrix(1 0 0 1 15 38)" class="st7 st9">A</text>
<text transform="matrix(1 0 0 1 1026 38)" class="st7 st9">B</text>
<text transform="matrix(1 0 0 1 530.46 262)" class="st7 st8">Median 5-6 days (95% CI: 5, 9 days) </text>
<text transform="matrix(1 0 0 1 140 604.4)" class="st7 st8">122</text>
<text transform="matrix(1 0 0 1 333 604.4)" class="st7 st8">113</text>
<text transform="matrix(1 0 0 1 532 604.4)" class="st7 st8">29</text>
<text transform="matrix(1 0 0 1 732 604.4)" class="st7 st8">8</text>
<text transform="matrix(1 0 0 1 926 604.4)" class="st7 st8">0</text>
<text transform="matrix(1 0 0 1 119 562)" class="st7 st8">Number at risk</text>
<g>
	<polyline class="st5" points="968,615.9 118.9,615.9 118.9,575 	"/>
</g>
<text transform="matrix(1 0 0 1 491.5 673.8853)" class="st7 st8">Time (days)</text>
<g>
	<line class="st6" x1="157.5" y1="620.9" x2="157.5" y2="615.9"/>
</g>
<g>
	<line class="st6" x1="350.5" y1="620.9" x2="350.5" y2="615.9"/>
</g>
<g>
	<line class="st6" x1="543.5" y1="620.9" x2="543.5" y2="615.9"/>
</g>
<g>
	<line class="st6" x1="736.5" y1="620.9" x2="736.5" y2="615.9"/>
</g>
<g>
	<line class="st6" x1="929.4" y1="620.9" x2="929.4" y2="615.9"/>
</g>
<text transform="matrix(1 0 0 1 151 641.2159)" class="st7 st8">0</text>
<text transform="matrix(1 0 0 1 344 641.2159)" class="st7 st8">5</text>
<text transform="matrix(1 0 0 1 531 641.2159)" class="st7 st8">10</text>
<text transform="matrix(1 0 0 1 725 641.2159)" class="st7 st8">15</text>
<text transform="matrix(1 0 0 1 918 641.2157)" class="st7 st8">20</text>
<g>
	<line class="st6" x1="1146.2" y1="597.9" x2="1152.6" y2="597.9"/>
</g>
<g>
	<line class="st6" x1="1146.2" y1="470" x2="1152.6" y2="470"/>
</g>
<g>
	<line class="st6" x1="1146.2" y1="341.8" x2="1152.6" y2="341.8"/>
</g>
<g>
	<line class="st6" x1="1146.2" y1="213.9" x2="1152.6" y2="213.9"/>
</g>
<g>
	<line class="st6" x1="1146.2" y1="85.8" x2="1152.6" y2="85.8"/>
</g>
<g>
	<line class="st6" x1="1202.1" y1="625" x2="1202.1" y2="618.6"/>
</g>
<g>
	<line class="st10" x1="1449.6" y1="624.2" x2="1449.6" y2="620.6"/>
</g>
<g>
	<line class="st6" x1="1697.1" y1="626" x2="1697.1" y2="619.6"/>
</g>
<g>
	<line class="st6" x1="1944.5" y1="626" x2="1944.5" y2="619.6"/>
</g>
<g>
	<line class="st10" x1="2192" y1="624.2" x2="2192" y2="620.6"/>
</g>
<text transform="matrix(1 0 0 1 1595.9719 322.0203)" class="st7 st8">Median 6.7 days (95% CI: 5.8, 7.7 days) </text>
<text transform="matrix(1 0 0 1 1631.0879 673.8849)" class="st7 st8">Time (days)</text>
<text transform="matrix(1 0 0 1 1195.0918 646.4235)" class="st7 st8">0</text>
<text transform="matrix(1 0 0 1 1442.584 646.4235)" class="st7 st8">5</text>
<text transform="matrix(1 0 0 1 1682.3818 646.4235)" class="st7 st8">10</text>
<text transform="matrix(1 0 0 1 1931.1553 646.4235)" class="st7 st8">15</text>
<text transform="matrix(1 0 0 1 2178.6475 646.4235)" class="st7 st8">20</text>
<text transform="matrix(-1.836970e-16 -1 1 -1.836970e-16 1073.92 481.3512)" class="st7 st8">Incubation period probability</text>
<text transform="matrix(1 0 0 1 1097.2104 91.1217)" class="st7 st8">1.00</text>
<text transform="matrix(1 0 0 1 1097.2104 217.8551)" class="st7 st8">0.75</text>
<text transform="matrix(1 0 0 1 1097.2104 348.4362)" class="st7 st8">0.50</text>
<text transform="matrix(1 0 0 1 1097.2104 475.1696)" class="st7 st8">0.25</text>
<text transform="matrix(1 0 0 1 1097.21 603.1725)" class="st7 st8">0.00</text>
<g>
	<defs>
		<rect id="SVGID_1_" x="1152.6" y="56" width="1088.9" height="563.4"/>
	</defs>
	<clipPath id="SVGID_2_">
		<use xlink:href="#SVGID_1_"  style="overflow:visible;"/>
	</clipPath>
</g>
<g>
	<defs>
		<rect id="SVGID_3_" x="1152.6" y="56" width="1088.9" height="563.4"/>
	</defs>
	<clipPath id="SVGID_4_">
		<use xlink:href="#SVGID_3_"  style="overflow:visible;"/>
	</clipPath>
	<line class="st11" x1="1202.1" y1="81.6" x2="1301.1" y2="81.6"/>
</g>
<g>
	<defs>
		<rect id="SVGID_5_" x="1152.6" y="56" width="1088.9" height="563.4"/>
	</defs>
	<clipPath id="SVGID_6_">
		<use xlink:href="#SVGID_5_"  style="overflow:visible;"/>
	</clipPath>
	<line class="st12" x1="1301.1" y1="81.6" x2="1350.6" y2="117.6"/>
</g>
<g>
	<defs>
		<rect id="SVGID_7_" x="1152.6" y="56" width="1088.9" height="563.4"/>
	</defs>
	<clipPath id="SVGID_8_">
		<use xlink:href="#SVGID_7_"  style="overflow:visible;"/>
	</clipPath>
	<line class="st13" x1="1350.6" y1="117.6" x2="1449.6" y2="117.6"/>
</g>
<g>
	<defs>
		<rect id="SVGID_9_" x="1152.6" y="56" width="1088.9" height="563.4"/>
	</defs>
	<clipPath id="SVGID_10_">
		<use xlink:href="#SVGID_9_"  style="overflow:visible;"/>
	</clipPath>
	<line class="st14" x1="1449.6" y1="117.6" x2="1499.1" y2="425.4"/>
</g>
<g>
	<defs>
		<rect id="SVGID_11_" x="1152.6" y="56" width="1088.9" height="563.4"/>
	</defs>
	<clipPath id="SVGID_12_">
		<use xlink:href="#SVGID_11_"  style="overflow:visible;"/>
	</clipPath>
	<line class="st15" x1="1499.1" y1="425.4" x2="1647.6" y2="425.4"/>
</g>
<g>
	<defs>
		<rect id="SVGID_13_" x="1152.6" y="56" width="1088.9" height="563.4"/>
	</defs>
	<clipPath id="SVGID_14_">
		<use xlink:href="#SVGID_13_"  style="overflow:visible;"/>
	</clipPath>
	<line class="st16" x1="1647.6" y1="425.4" x2="1697.1" y2="468.9"/>
</g>
<g>
	<defs>
		<rect id="SVGID_15_" x="1152.6" y="56" width="1088.9" height="563.4"/>
	</defs>
	<clipPath id="SVGID_16_">
		<use xlink:href="#SVGID_15_"  style="overflow:visible;"/>
	</clipPath>
	<line class="st17" x1="1697.1" y1="468.9" x2="1746.6" y2="550.7"/>
</g>
<g>
	<defs>
		<rect id="SVGID_17_" x="1152.6" y="56" width="1088.9" height="563.4"/>
	</defs>
	<clipPath id="SVGID_18_">
		<use xlink:href="#SVGID_17_"  style="overflow:visible;"/>
	</clipPath>
	<line class="st18" x1="1746.6" y1="550.7" x2="1895.1" y2="550.7"/>
</g>
<g>
	<defs>
		<rect id="SVGID_19_" x="1152.6" y="56" width="1088.9" height="563.4"/>
	</defs>
	<clipPath id="SVGID_20_">
		<use xlink:href="#SVGID_19_"  style="overflow:visible;"/>
	</clipPath>
	<line class="st19" x1="1895.1" y1="550.7" x2="1944.6" y2="559.2"/>
</g>
<g>
	<defs>
		<rect id="SVGID_21_" x="1152.6" y="56" width="1088.9" height="563.4"/>
	</defs>
	<clipPath id="SVGID_22_">
		<use xlink:href="#SVGID_21_"  style="overflow:visible;"/>
	</clipPath>
	<line class="st20" x1="1944.6" y1="559.2" x2="1994.1" y2="578.8"/>
</g>
<g>
	<defs>
		<rect id="SVGID_23_" x="1152.6" y="56" width="1088.9" height="563.4"/>
	</defs>
	<clipPath id="SVGID_24_">
		<use xlink:href="#SVGID_23_"  style="overflow:visible;"/>
	</clipPath>
	<line class="st21" x1="1994.1" y1="578.8" x2="2043.5" y2="578.8"/>
</g>
<g>
	<defs>
		<rect id="SVGID_25_" x="1152.6" y="56" width="1088.9" height="563.4"/>
	</defs>
	<clipPath id="SVGID_26_">
		<use xlink:href="#SVGID_25_"  style="overflow:visible;"/>
	</clipPath>
	<line class="st22" x1="2043.5" y1="578.8" x2="2093" y2="593.8"/>
</g>
<g>
	<defs>
		<rect id="SVGID_27_" x="1152.6" y="56" width="1088.9" height="563.4"/>
	</defs>
	<clipPath id="SVGID_28_">
		<use xlink:href="#SVGID_27_"  style="overflow:visible;"/>
	</clipPath>
	<rect x="1301.1" y="81.6" class="st23" width="49.5" height="36"/>
</g>
<g>
	<defs>
		<rect id="SVGID_29_" x="1152.6" y="56" width="1088.9" height="563.4"/>
	</defs>
	<clipPath id="SVGID_30_">
		<use xlink:href="#SVGID_29_"  style="overflow:visible;"/>
	</clipPath>
	<rect x="1449.6" y="117.6" class="st24" width="49.5" height="307.8"/>
</g>
<g>
	<defs>
		<rect id="SVGID_31_" x="1152.6" y="56" width="1088.9" height="563.4"/>
	</defs>
	<clipPath id="SVGID_32_">
		<use xlink:href="#SVGID_31_"  style="overflow:visible;"/>
	</clipPath>
	<rect x="1647.6" y="425.4" class="st25" width="49.5" height="43.6"/>
</g>
<g>
	<defs>
		<rect id="SVGID_33_" x="1152.6" y="56" width="1088.9" height="563.4"/>
	</defs>
	<clipPath id="SVGID_34_">
		<use xlink:href="#SVGID_33_"  style="overflow:visible;"/>
	</clipPath>
	<rect x="1697.1" y="468.9" class="st26" width="49.5" height="81.7"/>
</g>
<g>
	<defs>
		<rect id="SVGID_35_" x="1152.6" y="56" width="1088.9" height="563.4"/>
	</defs>
	<clipPath id="SVGID_36_">
		<use xlink:href="#SVGID_35_"  style="overflow:visible;"/>
	</clipPath>
	<polygon class="st27" points="1746.6,550.7 1895,550.7 1895,550.7 	"/>
</g>
<g>
	<defs>
		<rect id="SVGID_37_" x="1152.6" y="56" width="1088.9" height="563.4"/>
	</defs>
	<clipPath id="SVGID_38_">
		<use xlink:href="#SVGID_37_"  style="overflow:visible;"/>
	</clipPath>
	<rect x="1944.6" y="559.2" class="st28" width="49.5" height="19.6"/>
</g>
<g>
	<defs>
		<rect id="SVGID_39_" x="1152.6" y="56" width="1088.9" height="563.4"/>
	</defs>
	<clipPath id="SVGID_40_">
		<use xlink:href="#SVGID_39_"  style="overflow:visible;"/>
	</clipPath>
	<rect x="2043.5" y="578.8" class="st29" width="49.5" height="14.9"/>
</g>
<polyline class="st30" points="2184.3,573.6 2115.6,568.5 2061.3,563.4 2015.2,558.2 1979.3,553.1 1947.2,548 1920.2,542.9 
	1896.7,537.8 1874.9,532.6 1855.8,527.5 1838.3,522.4 1822.6,517.3 1808.7,512.1 1795.2,507 1782.8,501.9 1771.3,496.8 
	1760.8,491.7 1750.4,486.5 1741.3,481.4 1731.8,476.3 1723,471.2 1714.6,466 1707.2,460.9 1699.5,455.8 1692.4,450.7 1685.2,445.6 
	1678.4,440.4 1671.6,435.3 1665.7,430.2 1659.8,425.1 1654.2,419.9 1648.8,414.8 1643.4,409.7 1638,404.6 1633,399.5 1628,394.3 
	1623.3,389.2 1618.5,384.1 1614,379 1609.6,373.8 1605,368.7 1601.1,363.6 1597.1,358.5 1593,353.4 1588.8,348.2 1585.4,343.1 
	1581.4,338 1577.4,332.9 1573.7,327.7 1570.2,322.6 1566.3,317.5 1562.6,312.4 1558.7,307.3 1555.5,302.1 1551.9,297 1548.6,291.9 
	1545.4,286.8 1542,281.6 1538.7,276.5 1535.4,271.4 1532.1,266.3 1528.8,261.2 1525.5,256 1521.8,250.9 1518.7,245.8 1515.3,240.7 
	1512.2,235.6 1508.8,230.4 1505.3,225.3 1501.8,220.2 1498.3,215.1 1494.8,209.9 1491,204.8 1487.3,199.7 1483.8,194.6 
	1479.9,189.5 1476,184.3 1472.3,179.2 1468.2,174.1 1464.3,169 1459.9,163.8 1455.3,158.7 1450.8,153.6 1446.3,148.5 1441.7,143.4 
	1436.6,138.2 1431.3,133.1 1425.7,128 1419.5,122.9 1413.3,117.7 1406.1,112.6 1398.2,107.5 1388.2,102.4 1376.8,97.3 1361.9,92.1 
	1339.5,87 1267.6,87 1285,92.1 1297.2,97.3 1307.6,102.4 1316,107.5 1323.4,112.6 1329.8,117.7 1336.1,122.9 1341.8,128 
	1347.1,133.1 1352.2,138.2 1357.4,143.4 1362.1,148.5 1366.8,153.6 1371.2,158.7 1375.5,163.8 1379.6,169 1383.9,174.1 
	1387.8,179.2 1391.7,184.3 1395.5,189.5 1398.9,194.6 1402.2,199.7 1405.9,204.8 1409.4,209.9 1412.8,215.1 1416.4,220.2 
	1419.9,225.3 1422.8,230.4 1426,235.6 1429,240.7 1432.2,245.8 1435.5,250.9 1438.8,256 1442.1,261.2 1445,266.3 1448.3,271.4 
	1451.3,276.5 1454.7,281.6 1457.7,286.8 1460.9,291.9 1464,297 1467.2,302.1 1470.5,307.3 1473.9,312.4 1477.2,317.5 1480.6,322.6 
	1483.9,327.7 1487.2,332.9 1490.7,338 1494,343.1 1497.8,348.2 1500.8,353.4 1503.8,358.5 1507.5,363.6 1510.9,368.7 1514,373.8 
	1517.2,379 1520.8,384.1 1524.4,389.2 1528.3,394.3 1532,399.5 1536.1,404.6 1540.1,409.7 1543.9,414.8 1547.5,419.9 1551.5,425.1 
	1555.3,430.2 1559.6,435.3 1564,440.4 1568.3,445.6 1572.9,450.7 1578,455.8 1582.8,460.9 1588,466 1593.1,471.2 1598.3,476.3 
	1603.8,481.4 1609.5,486.5 1615.6,491.7 1622.4,496.8 1629.2,501.9 1636.1,507 1643.7,512.1 1651.9,517.3 1660,522.4 1669.5,527.5 
	1679,532.6 1689.8,537.8 1701.6,542.9 1714.7,548 1729.7,553.1 1747.2,558.2 1767.5,563.4 1792.4,568.5 1823.2,573.6 1863.9,578.7 
	1925.7,583.9 2042.6,589 "/>
<g>
	<defs>
		<rect id="SVGID_41_" x="1152.6" y="56" width="1088.9" height="563.4"/>
	</defs>
	<clipPath id="SVGID_42_">
		<use xlink:href="#SVGID_41_"  style="overflow:visible;"/>
	</clipPath>
	<polyline class="st31" points="1302,86.7 1322.3,91.8 1336,96.9 1346.8,102.1 1355.8,107.2 1363.7,112.3 1370.8,117.4 
		1377.3,122.6 1383.2,127.7 1388.8,132.8 1394.1,137.9 1399.2,143 1404,148.2 1408.6,153.3 1413,158.4 1417.2,163.5 1421.4,168.7 
		1425.3,173.8 1429.2,178.9 1433,184 1436.8,189.1 1440.5,194.3 1444,199.4 1447.5,204.5 1450.9,209.6 1454.4,214.8 1457.8,219.9 
		1461.2,225 1464.7,230.1 1468,235.2 1471.4,240.4 1474.6,245.5 1477.9,250.6 1481.2,255.7 1484.3,260.9 1487.5,266 1490.6,271.1 
		1493.8,276.2 1497,281.3 1500.3,286.5 1503.5,291.6 1506.8,296.7 1510.1,301.8 1513.4,307 1516.8,312.1 1520,317.2 1523.4,322.3 
		1526.8,327.4 1530.2,332.6 1533.8,337.7 1537.4,342.8 1541.1,347.9 1544.7,353.1 1548.4,358.2 1552,363.3 1556,368.4 1559.6,373.5 
		1563.4,378.7 1567.4,383.8 1571.5,388.9 1575.6,394 1579.8,399.2 1584,404.3 1588.5,409.4 1592.9,414.5 1597.6,419.6 1602.2,424.8 
		1607,429.9 1612,435 1617,440.1 1622.2,445.2 1627.5,450.4 1633.2,455.5 1639,460.6 1645.1,465.7 1651.3,470.9 1657.8,476 
		1664.8,481.1 1671.9,486.2 1679.5,491.3 1687.7,496.5 1696.2,501.6 1705.1,506.7 1714.8,511.8 1725.6,517 1736.8,522.1 1749,527.2 
		1762.2,532.3 1776.8,537.4 1792.8,542.6 1811.3,547.7 1832.1,552.8 1856.4,557.9 1885.1,563 1920.2,568.2 1965.3,573.3 
		2027.7,578.4 2121.8,583.5 	"/>
</g>
<g>
	<defs>
		<rect id="SVGID_43_" x="1152.6" y="56" width="1088.9" height="563.4"/>
	</defs>
	<clipPath id="SVGID_44_">
		<use xlink:href="#SVGID_43_"  style="overflow:visible;"/>
	</clipPath>
</g>
<g>
	<defs>
		<rect id="SVGID_45_" x="1152.6" y="56" width="1088.9" height="563.4"/>
	</defs>
	<clipPath id="SVGID_46_">
		<use xlink:href="#SVGID_45_"  style="overflow:visible;"/>
	</clipPath>
</g>
<g>
	<defs>
		<rect id="SVGID_47_" x="1152.6" y="56" width="1088.9" height="563.4"/>
	</defs>
	<clipPath id="SVGID_48_">
		<use xlink:href="#SVGID_47_"  style="overflow:visible;"/>
	</clipPath>
	<line class="st32" x1="1152.6" y1="337.7" x2="2241.5" y2="337.7"/>
</g>
<g>
	<defs>
		<rect id="SVGID_49_" x="1152.6" y="56" width="1088.9" height="563.4"/>
	</defs>
	<clipPath id="SVGID_50_">
		<use xlink:href="#SVGID_49_"  style="overflow:visible;"/>
	</clipPath>
	<line class="st33" x1="1152.6" y1="568.2" x2="2241.5" y2="568.2"/>
</g>
<g>
	<defs>
		<rect id="SVGID_51_" x="1152.6" y="56" width="1088.9" height="563.4"/>
	</defs>
	<clipPath id="SVGID_52_">
		<use xlink:href="#SVGID_51_"  style="overflow:visible;"/>
	</clipPath>
	<line class="st34" x1="1491.3" y1="619.4" x2="1491.3" y2="337.7"/>
</g>
<g>
	<defs>
		<rect id="SVGID_53_" x="1152.6" y="56" width="1088.9" height="563.4"/>
	</defs>
	<clipPath id="SVGID_54_">
		<use xlink:href="#SVGID_53_"  style="overflow:visible;"/>
	</clipPath>
	<line class="st35" x1="1533.8" y1="619.4" x2="1533.8" y2="337.7"/>
</g>
<g>
	<defs>
		<rect id="SVGID_55_" x="1152.6" y="56" width="1088.9" height="563.4"/>
	</defs>
	<clipPath id="SVGID_56_">
		<use xlink:href="#SVGID_55_"  style="overflow:visible;"/>
	</clipPath>
	<line class="st36" x1="1580.1" y1="619.4" x2="1580.1" y2="337.7"/>
</g>
<g>
	<defs>
		<rect id="SVGID_57_" x="1152.6" y="56" width="1088.9" height="563.4"/>
	</defs>
	<clipPath id="SVGID_58_">
		<use xlink:href="#SVGID_57_"  style="overflow:visible;"/>
	</clipPath>
	<line class="st37" x1="1791.2" y1="619.4" x2="1791.2" y2="568.2"/>
</g>
<g>
	<defs>
		<rect id="SVGID_59_" x="1152.6" y="56" width="1088.9" height="563.4"/>
	</defs>
	<clipPath id="SVGID_60_">
		<use xlink:href="#SVGID_59_"  style="overflow:visible;"/>
	</clipPath>
	<line class="st38" x1="1919.8" y1="619.4" x2="1919.8" y2="568.2"/>
</g>
<g>
	<defs>
		<rect id="SVGID_61_" x="1152.6" y="56" width="1088.9" height="563.4"/>
	</defs>
	<clipPath id="SVGID_62_">
		<use xlink:href="#SVGID_61_"  style="overflow:visible;"/>
	</clipPath>
	<line class="st39" x1="2107.4" y1="619.4" x2="2107.4" y2="568.2"/>
</g>
<g>
	<defs>
		<rect id="SVGID_63_" x="1152.6" y="56" width="1088.9" height="563.4"/>
	</defs>
	<clipPath id="SVGID_64_">
		<use xlink:href="#SVGID_63_"  style="overflow:visible;"/>
	</clipPath>
	<polyline class="st40" points="2241.5,619.4 1152.6,619.4 1152.6,56 	"/>
</g>
<g>
	<line class="st6" x1="1449.6" y1="625.8" x2="1449.6" y2="619.4"/>
</g>
<g>
	<line class="st6" x1="2192" y1="625.8" x2="2192" y2="619.4"/>
</g>
<text transform="matrix(1 0 0 1 1937.1553 501.8997)" class="st7 st8">95</text>
<text transform="matrix(0.583 0 0 0.583 1962.7383 494.2405)" class="st7 st8">th </text>
<text transform="matrix(1 0 0 1 1977.6465 501.8997)" class="st7 st8">percentile 14.5 days </text>
<text transform="matrix(1 0 0 1 1937.1553 529.4993)" class="st7 st8">(95% CI: 11.9, 18.5 days) </text>
</svg>
