<?xml version="1.0" encoding="utf-8"?>
<!-- Generator: Adobe Illustrator 15.1.0, SVG Export Plug-In . SVG Version: 6.00 Build 0)  -->
<!DOCTYPE svg PUBLIC "-//W3C//DTD SVG 1.1//EN" "http://www.w3.org/Graphics/SVG/1.1/DTD/svg11.dtd">
<svg version="1.1" id="Layer_1" xmlns="http://www.w3.org/2000/svg" xmlns:xlink="http://www.w3.org/1999/xlink" x="0px" y="0px"
	 width="512px" height="501px" viewBox="43.14 179.445 512 501" enable-background="new 43.14 179.445 512 501"
	 xml:space="preserve">
<g opacity="0.65" enable-background="new    ">
	
		<image overflow="visible" opacity="0.75" width="303" height="480" xlink:href="E0215EE0.png"  transform="matrix(1 0 0 1 150.1399 214.4453)">
	</image>
	<g>
		<path fill="#E7A691" d="M430.765,373.116c2.953-24.812,0.699-45.537-3.209-62.748c-0.812-3.484-16.958-6.853-18.003-10.105
			c-22.767-72.014-101.634-77.009-112.552-77.357c0,0-0.232,0-0.697,0c-0.348,0-0.696,0-0.696,0
			c-13.807,0.446-136.694,8.368-116.657,150.327c-0.787-0.058-1.562,0.001-2.319,0.197c-7.577,1.957-10.431,16.281-6.373,31.995
			c4.057,15.714,13.489,26.866,21.066,24.909c0.217-0.056,0.428-0.125,0.637-0.2c22.813,76.024,54.982,103.228,77.684,112.727
			c0.798,5.221,1.453,10.386,1.453,13.287c0,3.516-0.961,10.355-1.974,16.591c-5.568,1.187-10.997,2.742-16.261,4.665
			c-13.357,4.878-25.67,12.08-36.82,21.256s-21.023,20.442-29.503,33.567c-3.28,5.033,12.5,12.153,33.078,18.991
			c32.506,10.837,77.035,20.966,77.035,20.966s0.045-0.011,0.116-0.026c0.071,0.016,0.116,0.026,0.116,0.026v-0.054
			c5.544-1.273,117.68-27.215,109.183-39.903c-8.711-13.009-18.816-24.275-30.083-33.567c-11.267-9.176-23.812-16.378-37.169-21.256
			c-4.821-1.746-9.764-3.188-14.812-4.328c-1.034-6.324-2.03-13.349-2.03-16.928c0-2.95,0.678-8.243,1.494-13.554
			c7.959-3.404,17.051-8.971,26.498-18.04c2.788-2.672,31.826,0.697,34.614-2.672c12.863-15.151,21.865-40.395,30.541-74.795
			c8.761-2.191,18.185-15.269,22.652-32.569C442.848,394.862,439.683,376.887,430.765,373.116z"/>
	</g>
</g>
<circle opacity="0.76" enable-background="new    " cx="297.117" cy="431.399" r="242.177"/>
<path fill="#F3B29A" d="M326.272,585.881h-29.735h-29.734c0,0,4.297-22.301,4.297-29.734s-4.297-29.735-4.297-29.735h29.734h29.735
	c0,0-4.298,22.302-4.298,29.735S326.272,585.881,326.272,585.881z"/>
<polygon fill="#EDC8A5" points="346.714,581.119 249.147,581.119 276.559,671.718 319.302,671.718 "/>
<path opacity="0.65" fill="#E7A691" enable-background="new    " d="M297.117,526.411h-0.581h-29.734c0,0,4.297,22.302,4.297,29.735
	c0,5.227-2.206,18.003-3.484,24.973h-19.397l27.412,90.599h21.372V526.411H297.117z"/>
<ellipse transform="matrix(-0.9682 -0.25 0.25 -0.9682 723.9828 911.7529)" fill="#F3B29A" cx="419.892" cy="409.9" rx="18.468" ry="38.445"/>
<ellipse transform="matrix(-0.25 -0.9682 0.9682 -0.25 -159.1435 680.4919)" fill="#E7A691" cx="183.978" cy="401.881" rx="29.385" ry="14.17"/>
<path fill="#F3B29A" d="M297.001,222.905L297.001,222.905c0,0-0.232,0-0.697,0c-0.348,0-0.696,0-0.696,0l0,0
	c-14.403,0.465-147.514,9.06-113.249,169.466C216.74,553.01,288.754,548.48,296.304,547.551c4.065,0.465,27.528,2.091,53.662-22.998
	c2.788-2.672,31.826,0.697,34.614-2.672c18.933-22.301,29.502-66.438,42.976-129.509c7.202-33.568,4.879-60.515,0-82.003
	c-0.812-3.484-16.958-6.853-18.003-10.105C386.786,228.249,307.919,223.254,297.001,222.905z"/>
<path opacity="0.65" fill="#E7A691" enable-background="new    " d="M296.885,224.299c0,0-150.766,0-114.526,169.582
	c36.24,169.583,114.526,155.064,114.526,155.064"/>
<g opacity="0.7">
	<g>
		<path fill="#303030" d="M367.97,243.929c-29.967-19.746-64-21.837-70.969-22.069l0,0c0,0-0.232,0-0.697,0
			c-0.348,0-0.696,0-0.696,0l0,0c-6.854,0.232-41.002,2.323-70.97,22.069c-31.128,20.559-57.844,60.283-44.37,137.06h11.964
			c-11.15-70.272,16.727-104.305,46.345-120.682c13.59,10.105,34.381,16.609,57.611,16.609c22.65,0,42.86-6.156,56.45-15.796
			c14.287,8.247,27.877,20.559,36.937,39.143c1.51,3.02,20.21,8.363,21.372,11.731c6.389,18.12,6.504,41.35,1.858,71.085h16.609
			c4.763-27.412,4.53-50.062,0.697-68.878c-0.813-4.182-19.281-10.338-20.443-14.171
			C401.655,273.199,385.509,255.544,367.97,243.929z"/>
	</g>
</g>
<g>
	<g>
		<path fill="#F3B29A" d="M406.068,632.226c-8.711-13.009-18.816-24.275-30.083-33.567c-11.267-9.176-23.812-16.378-37.169-21.256
			c-13.474-4.879-27.876-7.434-42.976-7.434c-15.101,0-29.503,2.555-42.86,7.434c-13.357,4.878-25.67,12.08-36.82,21.256
			s-21.023,20.442-29.503,33.567c-8.479,13.01,109.996,39.957,109.996,39.957S414.78,645.235,406.068,632.226z"/>
	</g>
	<path opacity="0.65" fill="#E7A691" enable-background="new    " d="M297.117,569.969c-0.116,0-0.232,0-0.349,0s-0.232,0-0.349,0
		s-0.232,0-0.348,0c-0.116,0-0.232,0-0.349,0c-15.1,0-29.503,2.555-42.86,7.434c-13.357,4.878-25.67,12.08-36.82,21.256
		s-21.023,20.442-29.503,33.567c-8.479,13.01,110.345,39.957,110.345,39.957v-22.302v-26.599v-26.599v-26.715H297.117
		L297.117,569.969z"/>
</g>
<path fill="#FFFFFF" d="M297.931,627.464c26.25,0,51.804-20.791,53.197-46.81c-1.51-0.697-3.021-1.51-4.53-2.091
	c-2.671,24.509-23.347,43.558-48.551,43.558c-25.438,0-46.229-19.397-48.668-44.139c-1.51,0.581-3.021,1.395-4.53,2.091
	C245.662,606.208,271.331,627.464,297.931,627.464z"/>
<path opacity="0.51" fill="#B5957F" enable-background="new    " d="M323.367,542.905c-13.009,5.459-22.882,5.227-26.366,4.878
	c-0.232,0-0.465,0-0.697-0.116c-2.206,0.232-10.221,0.93-21.256-2.671c3.833,7.434,11.848,13.357,21.953,16.145
	c3.949,1.046,8.131,1.742,12.66,1.742c4.414,0,8.596-0.58,12.545-1.626c-0.232-1.975-0.349-3.601-0.349-4.878
	C321.858,553.475,322.555,548.132,323.367,542.905z"/>
<g>
	<g>
		<circle fill="#20A6A5" stroke="#FFFFFF" stroke-width="4" stroke-miterlimit="10" cx="244.733" cy="377.504" r="24.973"/>
		<circle cx="244.733" cy="377.504" r="10.57"/>
	</g>
	<path fill="#FFFFFF" d="M238.228,384.938h-3.484c-1.045,0-1.975-0.929-1.975-1.975v-3.485c0-1.045,0.93-1.975,1.975-1.975h3.484
		c1.046,0,1.975,0.929,1.975,1.975v3.485C240.202,384.009,239.39,384.938,238.228,384.938z"/>
</g>
<path opacity="0.36" fill="none" stroke="#B5957F" stroke-miterlimit="10" enable-background="new    " d="M345.902,285.163
	c-2.323,1.858-4.995,3.484-7.898,5.111c-2.904,1.51-6.04,2.904-9.524,4.181c-3.369,1.278-7.086,2.323-10.919,3.136
	s-7.898,1.51-12.079,1.975c-4.182,0.464-8.479,0.697-13.01,0.697c-4.529,0-8.827-0.232-13.009-0.697s-8.247-1.162-12.08-1.975
	s-7.55-1.975-10.918-3.136c-3.368-1.277-6.62-2.671-9.524-4.181"/>
<path opacity="0.36" fill="none" stroke="#B5957F" stroke-miterlimit="10" enable-background="new    " d="M353.335,297.011
	c-2.672,1.858-5.691,3.484-9.061,5.11c-3.368,1.51-6.969,2.904-10.918,4.182s-8.131,2.323-12.544,3.136
	c-4.414,0.813-9.061,1.51-13.822,1.975c-4.763,0.464-9.757,0.697-14.867,0.697c-5.111,0-10.105-0.232-14.868-0.697
	c-4.762-0.465-9.408-1.162-13.822-1.975c-4.413-0.813-8.595-1.975-12.544-3.136c-3.949-1.278-7.55-2.671-10.918-4.182"/>
<g>
	<path d="M298.976,509.453c20.442,1.858,29.734-27.296,35.542-42.628c-23.578,2.323-47.157,4.763-70.736,7.085
		C259.6,492.379,283.528,508.06,298.976,509.453z"/>
	<path fill="#FFFFFF" d="M270.519,480.531c17.307-1.046,34.613-1.975,52.036-3.021c2.903-0.116,6.039-4.529,7.898-9.524
		c-21.141,2.091-42.163,4.065-63.304,6.156C265.872,477.743,267.615,480.647,270.519,480.531z"/>
	<g>
		<path fill="#F54E6D" d="M276.559,499.231c6.271,4.298,13.706,7.666,20.442,8.247c7.434,0.697,13.357-2.207,18.352-8.015
			c-5.11-6.736-10.453-8.595-17.771-9.06c-1.278-0.116-2.323,0.812-2.556,0.696c-0.232-0.115-1.858-1.51-2.091-1.51
			C284.225,486.804,279.578,493.075,276.559,499.231z"/>
	</g>
	<g>
		<path fill="#FFFFFF" d="M278.301,496.212c-0.697,0-1.395,0.232-1.975,0.696c6.04,4.065,13.474,7.202,20.559,7.666
			c6.854,0.465,12.544-1.626,17.307-5.808c-0.813-0.929-1.626-1.394-2.556-1.51C300.602,497.024,289.451,496.561,278.301,496.212z"
			/>
	</g>
	<g>
		<path fill="#CC3536" d="M299.789,512.589c-16.494-2.787-42.512-19.281-37.053-39.491c0.232-0.465,0.232-0.697,0.465-1.162
			c24.392-2.787,48.783-5.459,73.175-8.246c-0.348,0.696-0.464,1.045-0.696,1.742C329.524,480.066,321.16,514.215,299.789,512.589z
			 M264.363,474.143c-2.672,16.494,18.7,29.038,32.522,29.735c19.049,0.929,29.967-20.907,36.123-36.588
			C310.126,469.613,287.244,471.819,264.363,474.143z"/>
	</g>
</g>
<g>
	<g>
		<circle fill="#20A6A5" stroke="#FFFFFF" stroke-width="4" stroke-miterlimit="10" cx="356.006" cy="372.045" r="44.486"/>
		<circle cx="356.006" cy="372.045" r="18.701"/>
	</g>
	<path fill="#FFFFFF" d="M365.879,385.17h9.176c1.046,0,1.975-0.929,1.975-1.975v-9.176c0-1.045-0.929-1.975-1.975-1.975h-9.176
		c-1.045,0-1.975,0.929-1.975,1.975v9.176C363.905,384.241,364.834,385.17,365.879,385.17z"/>
</g>
<g opacity="0.51">
	<path fill="#A5856F" d="M296.885,386.68c0.116,2.323-0.349,4.646-0.929,6.969c-0.581,2.323-1.278,4.53-2.091,6.736
		c-1.626,4.414-3.485,8.596-5.459,12.777c-1.975,4.182-4.182,8.247-6.389,12.312c-2.323,4.065-4.646,8.015-7.086,11.964l-0.58-1.51
		c1.858,0.581,3.833,1.161,5.808,1.742c1.975,0.465,3.949,1.046,5.924,1.394c1.975,0.465,3.949,0.813,6.04,1.162
		c1.975,0.349,4.064,0.58,6.039,0.929c-2.09,0-4.064,0-6.155-0.232c-2.091-0.116-4.065-0.348-6.156-0.696
		c-2.091-0.232-4.065-0.581-6.04-1.046c-1.975-0.464-4.065-0.929-6.04-1.51l-1.161-0.349l0.696-1.161
		c2.323-3.949,4.53-8.015,6.737-12.08s4.414-8.131,6.505-12.196c2.09-4.064,4.181-8.246,6.039-12.428
		C294.446,395.508,296.304,391.326,296.885,386.68z"/>
</g>
<g opacity="0.51">
	<path fill="#A5856F" d="M299.906,439.064c2.206-1.161,4.413-1.975,6.62-2.903c2.207-0.813,4.414-1.51,6.621-2.207
		c2.206-0.697,4.529-1.277,6.736-1.858c2.323-0.465,4.646-1.046,7.085-1.277c-1.858,1.51-3.949,2.787-6.155,3.833
		c-2.207,1.045-4.414,1.858-6.621,2.555c-2.323,0.697-4.646,1.162-6.969,1.511C304.783,439.181,302.344,439.297,299.906,439.064z"/>
</g>
<g opacity="0.51">
	<path fill="#A5856F" d="M276.675,336.619c-5.46-1.278-11.268-2.207-17.075-2.904c-5.808-0.697-11.615-1.045-17.423-1.162
		s-11.615,0.116-17.423,0.697l-4.297,0.465c-1.395,0.232-2.904,0.464-4.298,0.697l-2.207,0.349l-2.091,0.464l-4.298,0.929
		l4.182-1.278l2.091-0.581l2.091-0.464c1.394-0.349,2.904-0.697,4.298-0.93l4.298-0.813c5.808-0.929,11.615-1.626,17.539-1.858
		c5.923-0.232,11.847-0.348,17.654,0c5.924,0.349,11.731,0.813,17.771,1.743L276.675,336.619z"/>
</g>
<g opacity="0.51">
	<path fill="#A5856F" d="M354.031,309.555c5.111-0.349,10.105-0.232,15.1,0c4.995,0.232,9.873,0.697,14.868,1.51
		c4.878,0.697,9.757,1.742,14.519,3.02c4.763,1.278,9.408,3.02,13.938,4.995c-4.646-1.51-9.408-2.788-14.171-3.601
		c-4.762-0.813-9.641-1.394-14.519-1.626c-4.879-0.232-9.757-0.232-14.52,0c-4.762,0.232-9.757,0.697-14.286,1.51L354.031,309.555z"
		/>
</g>
<g>
	<path d="M292.587,452.074c0.116,0.232,0.349,0.58,0.465,0.812c22.882-2.207,45.647-4.414,68.529-6.62
		c-3.949,11.034-10.918,20.675-17.307,21.023c-15.681,0.929-28.689,1.626-40.885,2.323c8.595,12.544,18.235,24.392,28.922,35.077
		c14.402-15.564,25.669-37.981,34.845-60.051C342.416,447.195,317.444,449.635,292.587,452.074z"/>
	<path fill="#FFFFFF" d="M344.275,467.29c6.389-0.349,13.357-9.989,17.307-21.023c-22.882,2.206-45.647,4.413-68.529,6.62
		c3.252,5.691,6.621,11.267,10.338,16.727C315.585,468.916,328.594,468.219,344.275,467.29z"/>
	<path fill="#CC3536" d="M374.707,436.742c-28.342,3.252-56.799,6.388-85.14,9.641c0.929,1.742,1.858,3.484,2.787,5.11
		c26.135-2.672,52.269-5.227,78.403-7.898c-8.712,23.347-18.701,48.784-31.826,67.368c1.046,0.93,1.975,1.975,3.021,2.904
		c14.635-22.998,23.347-53.895,31.244-73.408C373.778,439.064,374.01,438.252,374.707,436.742z"/>
	<path fill="#CC3536" d="M367.274,444.756c-9.177,22.069-20.443,44.486-34.846,60.051c2.09,2.091,4.297,4.182,6.504,6.272
		c13.125-18.584,23.114-44.021,31.826-67.368c-26.135,2.672-52.269,5.227-78.403,7.898c0.116,0.232,0.232,0.349,0.349,0.581
		C317.444,449.635,342.416,447.195,367.274,444.756z"/>
</g>
<g>
	
		<image overflow="visible" opacity="0.75" width="259" height="259" xlink:href="E0215EE3.png"  transform="matrix(1 0 0 1 264.1399 293.4453)">
	</image>
	<g>
		<circle fill="none" stroke="#000000" stroke-width="5" stroke-miterlimit="10" cx="399.311" cy="416.183" r="111.39"/>
	</g>
</g>
<circle fill="none" stroke="#000000" stroke-miterlimit="10" cx="297.582" cy="430.818" r="242.177"/>
<path fill="none" stroke="#000000" stroke-miterlimit="10" d="M472.623,501.555L472.623,501.555
	c4.298-4.298,11.267-4.298,15.564-0.116l5.227,5.227l1.046,1.046l22.998,22.766c13.938-30.548,21.72-64.465,21.72-100.239
	c0-133.691-108.369-242.178-242.177-242.178S54.823,296.546,54.823,430.237c0,91.296,50.526,170.744,125.097,211.978
	c2.438-4.529,4.994-8.827,7.782-12.893c2.903-4.414,6.039-8.712,9.408-12.661c3.252-4.064,6.736-7.782,10.337-11.383
	c3.602-3.601,7.318-6.853,11.268-9.989c3.833-3.136,7.897-5.923,12.079-8.479s8.479-4.879,12.894-6.969c0,0.231,0,0.464,0,0.58
	c0.348-0.232,0.696-0.349,1.161-0.58c0.813,26.366,26.599,47.506,53.198,47.506c26.25,0,51.803-20.791,53.197-46.81
	c0.232,0.116,0.464,0.232,0.696,0.349c0-0.349,0-0.697,0.116-1.045c4.414,2.09,8.712,4.413,12.894,6.969
	c4.181,2.556,8.246,5.459,12.079,8.479c3.833,3.137,7.666,6.389,11.268,9.989c3.601,3.601,7.085,7.318,10.337,11.383
	c3.253,4.065,6.389,8.247,9.408,12.661c2.556,3.949,4.995,8.015,7.435,12.312c38.098-21.372,69.923-52.733,91.76-90.6l-34.497-33.8
	C468.325,512.938,468.325,505.853,472.623,501.555z"/>
<path fill="#AD1425" d="M297.001,672.415c12.08,0,23.812-0.93,35.427-2.556l14.402-71.317c1.51-2.788,2.672-5.808,3.484-8.944
	c0.697-2.787,1.162-5.691,1.395-8.595c-0.232-0.116-0.465-0.232-0.697-0.349c-1.277,26.019-26.831,46.81-53.197,46.81
	c-26.483,0-52.269-21.14-53.198-47.507c-0.349,0.232-0.696,0.349-1.161,0.581c0.116,3.021,0.581,6.04,1.394,8.944
	c0.813,3.136,1.975,6.039,3.484,8.943l14.52,71.666"/>
<path fill="#F2F2F2" stroke="#000000" stroke-miterlimit="10" d="M218.715,596.219l-0.116-0.929
	c-3.833,3.136-7.666,6.388-11.268,9.988c-3.601,3.602-7.085,7.318-10.337,11.383c-3.252,4.065-6.389,8.247-9.408,12.661
	c-2.788,4.065-5.344,8.479-7.782,12.893c0.349,0.116,0.58,0.349,0.929,0.465C191.071,623.979,203.847,608.299,218.715,596.219z"/>
<path fill="#F2F2F2" stroke="#000000" stroke-miterlimit="10" d="M250.308,627.348h-28.225l-3.252-31.129
	c-14.984,12.08-27.761,27.761-37.866,46.577c18.933,10.454,39.492,18.352,61.212,23.347l-11.267-18.004L250.308,627.348z"/>
<path fill="#FFFFFF" stroke="#000000" stroke-miterlimit="10" d="M243.688,580.422c0-0.232,0-0.465,0-0.58
	c-4.414,2.09-8.712,4.413-12.894,6.969s-8.246,5.459-12.079,8.479l0.116,0.93C226.497,589.946,234.86,584.72,243.688,580.422z"/>
<path fill="#FFFFFF" stroke="#000000" stroke-miterlimit="10" d="M221.967,627.348h28.225l-19.514,20.791l11.268,18.004
	c6.853,1.626,13.938,2.903,21.023,3.833l-14.403-71.55c-1.51-2.788-2.671-5.808-3.484-8.943c-0.813-2.904-1.277-5.924-1.394-8.944
	c-8.828,4.182-17.19,9.524-24.856,15.797L221.967,627.348z"/>
<path fill="#F2F2F2" stroke="#000000" stroke-miterlimit="10" d="M398.285,616.661c-3.252-4.064-6.736-7.782-10.337-11.383
	s-7.317-6.853-11.267-9.989l-0.116,1.395c14.751,11.848,27.411,27.18,37.633,45.415c0.232-0.116,0.581-0.349,0.813-0.464
	c-2.323-4.182-4.763-8.363-7.434-12.312C404.674,624.908,401.655,620.727,398.285,616.661z"/>
<path fill="#F2F2F2" stroke="#000000" stroke-miterlimit="10" d="M345.088,627.464l19.514,20.791l-11.034,17.539
	c21.487-5.11,41.814-13.125,60.515-23.579c-10.221-18.235-22.882-33.567-37.633-45.415l-3.253,30.664H345.088z"/>
<path fill="#FFFFFF" stroke="#000000" stroke-miterlimit="10" d="M376.798,595.405c-3.833-3.136-7.898-5.923-12.08-8.479
	s-8.479-4.879-12.894-6.97c0,0.349,0,0.697-0.115,1.046c8.827,4.298,17.074,9.524,24.856,15.797L376.798,595.405z"/>
<path fill="#FFFFFF" stroke="#000000" stroke-miterlimit="10" d="M346.83,598.426l-14.402,71.317
	c7.201-1.045,14.286-2.439,21.256-4.065l11.034-17.539l-19.514-20.791h28.225l3.253-30.664
	c-7.782-6.272-16.029-11.615-24.857-15.797c-0.115,2.903-0.58,5.808-1.394,8.596C349.502,592.618,348.34,595.638,346.83,598.426z"/>
<g>
	
		<image overflow="visible" opacity="0.75" width="79" height="84" xlink:href="E0215EE2.png"  transform="matrix(1 0 0 1 448.1399 489.4453)">
	</image>
	<g>
		<path fill="#88411D" d="M494.46,507.711l-1.046-1.046l-5.227-5.227c-4.298-4.298-11.383-4.298-15.564,0.116l0,0
			c-4.298,4.298-4.298,11.383,0.116,15.564l34.148,33.916c3.833-6.62,7.434-13.59,10.57-20.559L494.46,507.711z"/>
	</g>
</g>
<circle fill="none" stroke="#000000" stroke-width="4" stroke-miterlimit="10" cx="297.001" cy="430.934" r="242.177"/>
<circle opacity="0.63" fill="#FFFFFF" stroke="#000000" stroke-miterlimit="10" cx="399.311" cy="415.183" r="111.39"/>
<g>
	<path fill="none" d="M391.317,463.108c0.465,0.349,0.349,0.929,0.465,1.045c0.929-0.696,1.742,0.349,2.555-1.161
		C393.291,462.179,392.246,462.76,391.317,463.108z"/>
	<path fill="none" d="M429.647,485.062l-9.408-15.217c-0.349,0.465-0.813,0.93-1.161,1.395
		C422.097,476.117,425.93,480.531,429.647,485.062z"/>
	<path fill="none" d="M476.805,443.827c1.277-0.116,2.439-0.349,3.252-0.581c2.904-0.812,6.737-1.742,10.222-1.858l-2.556-4.065
		c-4.182,1.278-8.595,2.439-13.009,3.137L476.805,443.827z"/>
	<path fill="none" d="M462.634,426.753c0.116-0.116,0.349-0.232,0.465-0.349l-11.615-18.584c-1.277,3.833-1.277,7.434-1.975,11.034
		c4.065,1.394,3.368,6.504,5.459,6.04c-0.697,0.929-1.161,1.51-1.858,2.438c1.742,1.046,3.601-0.348,5.227-0.464
		c0.581,0.464,3.253,2.903,4.065,3.136c-0.232-0.929-0.929-2.556,0.581-2.788c1.742,0.349-0.697,3.021,1.161,2.323
		c-0.812-0.58-0.232-0.812,0.232-1.045l-0.349-0.581C463.564,427.565,463.099,426.869,462.634,426.753z"/>
	<path fill="none" d="M489.349,435.58c4.182-1.394,8.363-2.903,12.545-3.949l-0.697-1.161c-3.484,0.349-8.247,0.232-13.59-1.162
		c-0.696,0-1.394,0-2.091,0.116L489.349,435.58z"/>
	<path fill="none" d="M481.334,430.005c-3.136-1.045-6.039-4.414-9.292-6.505c0.581,3.949-3.136,5.46-3.368,7.435l4.879,7.782
		c4.529,0,8.943-1.046,13.474-2.439l-4.065-6.621C482.38,429.772,481.915,429.889,481.334,430.005z"/>
	<path fill="none" d="M472.972,421.758c2.671,2.207,5.459,3.833,8.131,5.111l-5.575-8.944
		C475.527,419.319,474.598,420.016,472.972,421.758z"/>
	<path fill="none" d="M380.863,473.446c-0.58-1.743,1.743-2.788,2.904-4.995l-0.581-0.929c-4.065-0.232-8.015-0.581-11.848,0.929
		c-0.929-0.465-2.091-0.812-3.136-1.045l10.918,17.539v-0.116c4.298-1.162,7.202-4.646,9.408-8.712l-3.833-6.156
		C383.534,471.239,382.257,472.633,380.863,473.446z"/>
	<path fill="none" d="M419.541,425.011c1.162,1.045,0.465,2.322,2.323,3.368c0.465-0.697,1.046-1.277,1.51-1.975
		c-0.464-0.697-0.929-1.742-1.51-2.672C421.168,424.197,420.239,424.197,419.541,425.011z"/>
	<path fill="none" d="M466.235,423.849c0.581,0.465,1.395,0.697,2.091,0.232c-0.696-1.277,0.116-0.929,0.813-1.858
		c-3.717-3.717-8.596-7.434-13.01-11.383l9.177,14.751C466.002,425.127,466.467,424.662,466.235,423.849z"/>
	<path fill="none" d="M418.845,431.282c-1.51-1.858-1.742-5.691-4.646-6.155c0,0.696,0,1.51-0.116,2.206l3.369,5.46
		C417.915,432.328,418.38,431.863,418.845,431.282z"/>
	<path fill="none" d="M407.114,443.362c1.045-1.742,2.207-1.51,3.136-3.136c0-3.601,1.395-7.434,2.091-11.15l-2.556-4.065
		C409.088,430.935,407.811,437.206,407.114,443.362z"/>
	<path fill="none" d="M381.676,464.967l-1.045-1.626c-2.672,0.232-5.576,0.581-8.015,0.232c-2.323-1.742-5.343-2.207-8.596-2.672
		l2.439,3.949c1.161,0.116,2.207,0.349,3.136,0.465C373.778,465.548,377.959,465.548,381.676,464.967z"/>
	<path fill="none" d="M420.82,423.268c1.045-3.832-3.021-6.62-3.717-9.988c-3.137,2.903-0.813,7.898,2.671,10.569
		C419.89,423.616,420.471,422.92,420.82,423.268z"/>
	<path fill="none" d="M462.75,433.141c-1.161,2.323,3.136,1.395,1.394,3.602c1.742,0.58,3.485-0.116,5.228-0.232l-2.323-3.717
		C465.771,433.722,464.26,431.747,462.75,433.141z"/>
	<path fill="none" d="M457.524,440.11l3.368,5.459c2.323,0.465,5.227-0.116,8.943-0.697c1.395-0.348,2.904-0.58,4.298-0.696
		l-2.091-3.369C467.164,441.388,462.169,441.388,457.524,440.11z"/>
	<path fill="none" d="M411.179,419.087c0.349-0.465-0.232-0.581-0.697,0.116c0,0.696-0.116,1.394-0.232,2.091l2.556,4.181
		C413.037,423.152,412.573,421.062,411.179,419.087z"/>
	<path fill="none" d="M413.037,436.974c0.812-1.161,1.742-1.858,2.671-2.671l-2.206-3.484
		C413.154,432.909,412.805,434.999,413.037,436.974z"/>
	<path fill="none" d="M386.903,463.806c-1.045-0.465-2.207-0.581-3.601-0.581l0.813,1.277
		C385.16,464.386,386.09,464.037,386.903,463.806z"/>
	<path fill="none" d="M392.478,466.941c-2.206-1.394-4.181-0.349-6.039,1.394l3.368,5.343
		C390.852,471.355,391.781,469.032,392.478,466.941z"/>
	<path d="M440.682,512.473C440.913,512.705,440.913,512.821,440.682,512.473L440.682,512.473z"/>
	<path d="M489.349,435.58l0.697,1.046h0.116c4.065-1.395,8.711-1.858,12.08-4.53l-0.349-0.465
		C497.596,432.677,493.414,434.187,489.349,435.58z"/>
	<path d="M418.961,471.355c0.465-0.465,0.812-0.93,1.161-1.395l-16.146-25.785c-0.231,0.812-0.58,1.51-1.045,2.207
		c-1.742,3.252-4.646,5.575-7.55,8.13l14.751,23.695c2.556-2.207,4.995-4.53,6.97-4.763c9.176,10.338,17.655,20.908,19.397,33.22
		c0.696,1.626,2.207,1.395,2.323,2.556c-0.813-0.232-1.162-0.581-1.511,0.232c2.672,8.363,1.742,8.711,1.742-0.116
		c0.813,1.742,1.278,2.788,1.511,3.252c-0.697-1.51-3.949-9.408-6.156-19.514l-4.879-7.897
		C425.93,480.531,422.097,476.117,418.961,471.355z"/>
	<path d="M376.449,491.217c1.161-0.232,2.438-0.232,3.601-0.348l-1.975-3.137C377.611,488.895,377.03,490.056,376.449,491.217z"/>
	<path d="M504.913,429.076c-0.58,0.115-1.161,0.231-1.858,0.231l0.465,0.813C506.772,429.424,507.701,428.611,504.913,429.076z"/>
	<path d="M333.357,445.104c0.93,1.858,2.207,3.601,3.717,5.228l-5.11-8.247C332.428,443.13,332.892,444.176,333.357,445.104z"/>
	<path d="M423.723,418.971c-2.903-3.253-4.413-8.363-7.666-10.57c-1.51,2.439-1.51,4.53-2.323,6.737
		c-0.696-0.813-2.091-2.323-3.368-1.162c-0.812,1.395-1.51,2.788-1.858,4.414l1.858,2.904c0.116-0.697,0.116-1.395,0.232-2.091
		c0.465-0.697,1.045-0.581,0.697-0.116c1.394,1.975,1.742,4.065,1.626,6.388l1.161,1.975c0.116-0.812,0.116-1.51,0.116-2.207
		c2.904,0.465,3.137,4.298,4.646,6.156c-0.465,0.581-0.93,1.046-1.394,1.511l12.544,20.094c2.556-0.116,5.11-0.581,7.201-0.116
		c1.975-2.091,1.975-2.091,3.485-4.414c0.464,0.581,1.045,0.697,1.742,0.465L423.723,418.971
		C423.839,418.971,423.723,418.971,423.723,418.971z M417.103,413.279c0.696,3.368,4.762,6.156,3.717,9.988
		c-0.349-0.348-0.93,0.349-1.046,0.581C416.289,421.178,413.966,416.183,417.103,413.279z M421.865,428.379
		c-1.858-1.046-1.161-2.323-2.323-3.368c0.697-0.813,1.627-0.813,2.323-1.278c0.581,0.93,1.046,1.975,1.51,2.672
		C422.91,427.102,422.329,427.682,421.865,428.379z"/>
	<path d="M413.037,436.974c-0.232-1.975,0.116-4.064,0.465-6.155l-1.162-1.858c-0.812,3.717-2.091,7.55-2.091,11.15
		c-0.929,1.626-2.091,1.394-3.136,3.136c0.581-6.156,1.858-12.428,2.671-18.352l-2.09-3.369c-0.581,3.253-0.697,6.854-1.395,10.338
		c-0.464,2.672-0.812,6.04-1.51,9.06l16.726,26.831c3.137-4.646,5.46-10.453,6.389-13.821l-12.312-19.746
		C414.78,435.115,413.966,435.812,413.037,436.974z"/>
	<path d="M464.028,427.914l-0.929-1.51c-0.116,0.116-0.349,0.232-0.465,0.349C463.099,426.869,463.564,427.565,464.028,427.914z"/>
	<path d="M425.698,417.576l18.933,30.316c0.697-0.232,1.395-0.581,2.091-0.581c1.742-3.949,0.232-9.06,2.091-11.848
		c3.368,3.949,5.111,8.131,8.596,11.964c0.581,0,1.161-0.116,1.858-0.232l-23.23-37.285
		C432.9,414.208,429.763,415.021,425.698,417.576z"/>
	<path d="M494.809,441.853c-0.581-0.116-1.162-0.232-1.859-0.349l0.349,0.465C493.879,441.969,494.344,441.853,494.809,441.853z"/>
	<path d="M433.828,482.738c-1.858-6.389-6.621-11.615-9.757-17.19c0.93,5.808,5.343,12.312,7.085,17.655l2.904,4.646
		C434.177,485.99,434.409,484.248,433.828,482.738z"/>
	<path d="M472.158,440.807l-2.671-4.297c-1.743,0.116-3.602,0.812-5.228,0.232c1.742-2.207-2.555-1.278-1.394-3.602
		c1.394-1.394,3.02,0.581,4.298-0.348l-2.672-4.298c-0.465,0.232-1.045,0.581-0.232,1.045c-1.858,0.697,0.581-1.975-1.161-2.323
		c-1.51,0.232-0.813,1.859-0.581,2.788c-0.812-0.232-3.484-2.672-4.065-3.136c-1.626,0.116-3.484,1.51-5.227,0.464
		c0.697-0.929,1.161-1.51,1.858-2.438c-2.091,0.464-1.394-4.646-5.459-6.04c0.697-3.601,0.697-7.202,1.975-11.035l-2.556-4.064
		c-3.02,3.368-1.161,7.897-3.484,11.731c-1.394-0.581-2.903-0.93-4.182-1.395l16.262,26.019
		C462.169,441.388,467.164,441.388,472.158,440.807z"/>
	<path d="M501.08,430.47l-0.58-0.93c-4.414,0.232-8.712-0.349-13.01-0.232C492.834,430.818,497.712,430.818,501.08,430.47z"/>
	<path d="M380.863,473.446c1.278-0.813,2.556-2.207,3.833-3.485l-0.929-1.51C382.721,470.658,380.282,471.703,380.863,473.446z"/>
	<path d="M473.553,438.717l1.045,1.742c4.414-0.697,8.827-1.858,13.009-3.137l-0.696-1.045
		C482.496,437.671,478.082,438.717,473.553,438.717z"/>
	<path d="M469.139,422.223c-0.697,0.93-1.51,0.581-0.813,1.858c-0.696,0.465-1.51,0.232-2.091-0.232
		c0.232,0.813-0.232,1.278-0.929,1.626l3.368,5.46c0.232-1.975,3.949-3.485,3.368-7.435c3.253,2.091,6.156,5.46,9.292,6.505
		c0.465-0.116,1.046-0.232,1.511-0.349l-1.742-2.787c-2.672-1.278-5.46-2.904-8.131-5.111c1.51-1.742,2.439-2.438,2.555-3.717
		l-1.161-1.858c-1.975,0.697-2.787,1.394-4.646,3.949c-4.994-4.182-12.776-10.569-17.887-16.029l4.182,6.737
		C460.543,414.789,465.422,418.506,469.139,422.223z"/>
	<path d="M345.785,447.544c-2.439-2.672-3.602-7.085-7.666-8.479c0-1.742-1.395-6.62-4.298-5.808
		c0.696,9.757,11.15,14.752,18.119,21.256c0.813,1.046,1.278,2.439,2.323,3.253c2.091,1.394,4.414,2.091,6.737,2.555l-1.975-3.136
		C356.006,452.771,349.966,452.19,345.785,447.544z"/>
	<path d="M487.49,429.308c-0.929-0.231-1.742-0.58-2.671-0.812l0.58,0.929C486.097,429.308,486.794,429.308,487.49,429.308z"/>
	<path d="M383.186,467.522l-1.51-2.439c-3.717,0.465-7.898,0.581-11.964,0.232c-1.045-0.116-2.091-0.232-3.136-0.465l1.626,2.556
		c1.161,0.348,2.207,0.696,3.136,1.045C375.287,466.941,379.12,467.29,383.186,467.522z"/>
	<path d="M479.941,443.246c-0.812,0.232-1.975,0.465-3.252,0.581l0.349,0.581c4.529-0.813,9.06-1.627,13.59-2.207l-0.581-0.813
		C486.794,441.504,482.845,442.434,479.941,443.246z"/>
	<path d="M389.691,460.437c-2.672,0.232-5.343,0.232-8.015,0.116l1.626,2.672c1.394,0,2.672,0.116,3.601,0.58
		c-0.812,0.232-1.858,0.581-2.787,0.697l2.323,3.717c1.858-1.742,3.833-2.787,6.039-1.394c-0.812,2.091-1.626,4.414-2.671,6.736
		l7.317,11.731c1.626-1.161,3.252-2.671,4.879-3.833c2.09,0.697,4.297-0.464,6.388-2.091l-14.635-23.346
		C392.362,457.301,390.968,458.694,389.691,460.437z M391.781,464.153c-0.116-0.116,0-0.696-0.465-1.045
		c0.93-0.349,1.975-0.93,3.02-0.116C393.524,464.502,392.71,463.457,391.781,464.153z"/>
	<path d="M372.616,463.573c2.438,0.464,5.343,0,8.015-0.232l-1.859-2.904c-5.459-0.349-11.034-1.277-16.493-2.438l1.742,2.903
		C367.274,461.366,370.293,461.831,372.616,463.573z"/>
	<path d="M469.835,444.872c-3.717,0.697-6.504,1.162-8.943,0.697l0.93,1.394c4.297-0.58,8.595-1.394,12.893-2.091l-0.465-0.696
		C472.74,444.292,471.23,444.524,469.835,444.872z"/>
	<path d="M379.12,484.829C379.12,484.829,379.12,484.945,379.12,484.829l3.601,5.808c2.788-0.349,5.576-1.046,8.015-3.833
		c1.511,0.696,2.904,0.464,4.414-0.232l-6.505-10.454C386.439,480.183,383.418,483.667,379.12,484.829z"/>
	<path d="M352.057,460.901c-10.686-5.924-16.261-15.913-20.559-26.366c-0.232,0.464-0.465,1.045-0.581,1.626l13.241,21.256
		c0.232,0.232,0.465,0.465,0.697,0.581c6.156,5.807,13.706,7.201,20.095,8.595l-1.395-2.323
		C359.375,463.573,355.077,462.527,352.057,460.901z"/>
	<path fill="#FFFFFF" d="M331.963,442.085l5.11,8.247c2.091,2.438,4.646,4.762,7.085,6.969l-13.125-21.14
		C330.569,438.02,331.15,440.11,331.963,442.085z"/>
	<path fill="#FFFFFF" d="M362.279,457.998c-1.045-0.232-2.091-0.465-3.136-0.697l-0.116-0.116l1.975,3.136
		c1.045,0.232,2.091,0.349,3.136,0.581L362.279,457.998z"/>
	<path fill="#FFFFFF" d="M366.576,464.734c-0.93-0.116-1.975-0.349-3.021-0.465l1.395,2.323c1.161,0.232,2.207,0.465,3.252,0.813
		L366.576,464.734z"/>
	<path fill="#FFFFFF" d="M378.192,487.732l1.975,3.137c0.929,0,1.742-0.116,2.556-0.232l-3.602-5.691
		C379.004,485.874,378.656,486.804,378.192,487.732z"/>
	<path fill="#FFFFFF" d="M384.115,467.522c-0.349,0-0.581,0-0.93,0l0.581,0.929C383.999,468.103,384.115,467.87,384.115,467.522z"/>
	<path fill="#FFFFFF" d="M388.645,476.117l6.505,10.454c0.697-0.349,1.277-0.697,1.975-1.162l-7.317-11.731
		C389.458,474.491,388.993,475.305,388.645,476.117z"/>
	<path fill="#FFFFFF" d="M383.302,463.225l-1.626-2.672c-0.929,0-1.858-0.116-2.788-0.116l1.859,2.904
		C381.56,463.341,382.49,463.225,383.302,463.225z"/>
	<path fill="#FFFFFF" d="M383.186,467.522c0.349,0,0.581,0,0.93,0c-0.116,0.348-0.232,0.58-0.349,0.929l0.929,1.51
		c0.581-0.58,1.162-1.161,1.743-1.626l-2.323-3.717c-0.813,0.116-1.626,0.349-2.439,0.465L383.186,467.522z"/>
	<path fill="#FFFFFF" d="M393.756,456.023l14.751,23.578c0.581-0.464,1.278-0.929,1.858-1.394l-14.751-23.695
		C394.917,454.861,394.336,455.442,393.756,456.023z"/>
	<path fill="#FFFFFF" d="M431.854,487.849c-0.697-0.929-1.51-1.858-2.207-2.787l4.879,7.897c-0.116-0.696-0.349-1.51-0.465-2.206
		c-0.116-0.93-0.116-1.975,0-3.021l-2.904-4.646C431.738,484.829,432.086,486.455,431.854,487.849z"/>
	<path fill="#FFFFFF" d="M404.093,444.06l16.146,25.785c0.465-0.696,1.045-1.277,1.51-1.975l-16.726-26.831
		C404.674,442.201,404.442,443.13,404.093,444.06z"/>
	<path fill="#FFFFFF" d="M410.365,421.294l-1.858-2.904c-0.349,1.046-0.465,2.091-0.697,3.252l2.091,3.369
		C410.017,423.732,410.249,422.571,410.365,421.294z"/>
	<path fill="#FFFFFF" d="M413.502,430.818c0.231-1.162,0.464-2.323,0.58-3.485l-1.161-1.975c0,1.162-0.232,2.439-0.465,3.602
		L413.502,430.818z"/>
	<path fill="#FFFFFF" d="M415.708,434.303l12.312,19.746c0.116-0.465,0.232-0.813,0.232-1.162c0.581,0,1.161,0,1.742,0
		l-12.544-20.094C416.87,433.373,416.289,433.838,415.708,434.303z"/>
	<path fill="#FFFFFF" d="M423.839,418.971l18.701,29.967c0.696-0.232,1.394-0.58,2.206-0.929l-18.933-30.316
		C425.117,418.041,424.42,418.39,423.839,418.971z"/>
	<path fill="#FFFFFF" d="M454.619,439.297c0.93,0.349,1.858,0.581,2.904,0.813l-16.262-26.019c-2.091-0.696-3.949-1.742-5.227-4.182
		l-0.116,0.116l23.23,37.285c0.813-0.116,1.742-0.232,2.556-0.349l-0.93-1.394C458.336,445.104,456.362,443.362,454.619,439.297z"/>
	<path fill="#FFFFFF" d="M464.841,427.798c-0.232,0.349-0.465,0.349-0.813,0.116l0.349,0.581
		C464.957,428.263,465.422,428.03,464.841,427.798z"/>
	<path fill="#FFFFFF" d="M451.948,406.658c1.277,1.394,2.671,2.788,4.182,4.182l-4.182-6.737c-0.465-0.58-0.93-1.045-1.395-1.51
		c-0.58,0.465-1.045,0.813-1.51,1.278l2.556,4.064C451.716,407.472,451.832,407.007,451.948,406.658z"/>
	<path fill="#FFFFFF" d="M467.629,432.328c-0.349-0.232-1.395-0.697-1.046-1.51c0.813,0.348,1.51,1.975,2.207,1.045
		c-0.116-0.349-0.116-0.581-0.116-0.929l-3.368-5.46c-0.697,0.349-1.51,0.581-2.207,0.93l0.929,1.51
		c0.232,0.116,0.581,0.232,0.813-0.116c0.581,0.232,0,0.465-0.465,0.697l2.672,4.298
		C467.281,432.677,467.513,432.561,467.629,432.328z"/>
	<path fill="#FFFFFF" d="M474.249,444.176l0.465,0.696c0.812-0.116,1.626-0.348,2.439-0.464l-0.349-0.581
		C475.991,443.943,475.063,444.06,474.249,444.176z"/>
	<path fill="#FFFFFF" d="M473.553,438.717c-0.465,0-0.93,0-1.511,0c-0.349-0.697,0.813-1.511-0.696-1.975
		c-0.581-0.232-1.278-0.232-1.975-0.232l2.671,4.297c0.813-0.116,1.626-0.231,2.556-0.348L473.553,438.717z"/>
	<path fill="#FFFFFF" d="M490.279,441.388l0.581,0.813c0.812-0.116,1.742-0.232,2.555-0.232l-0.349-0.465
		C492.137,441.388,491.207,441.388,490.279,441.388z"/>
	<path fill="#FFFFFF" d="M487.026,436.277l0.697,1.045c0.813-0.232,1.51-0.465,2.323-0.696l-0.697-1.046
		C488.536,435.812,487.723,436.045,487.026,436.277z"/>
	<path fill="#FFFFFF" d="M482.845,429.656c0.812-0.116,1.742-0.232,2.555-0.349l-0.58-0.929c-1.162-0.465-2.439-0.93-3.717-1.51
		L482.845,429.656z"/>
	<path fill="#FFFFFF" d="M475.295,415.834c-0.349,0.116-0.581,0.232-0.93,0.232l1.162,1.858
		C475.643,417.461,475.527,416.764,475.295,415.834z"/>
	<path fill="#FFFFFF" d="M501.778,431.631l0.349,0.465c0.349-0.232,0.696-0.581,0.929-0.813
		C502.706,431.398,502.242,431.515,501.778,431.631z"/>
	<path fill="#FFFFFF" d="M503.636,430.121l-0.465-0.813c-0.929,0.116-1.742,0.232-2.556,0.232l0.581,0.93
		C502.01,430.354,502.939,430.237,503.636,430.121z"/>
</g>
<path opacity="0.44" fill="#33CCFF" d="M487.602,402.8c0,0-17.575-22.568-44.957-42.196c-27.381-19.627-54.199-28.881-54.199-28.881
	s33.558,0.062,60.939,19.689C476.766,371.04,487.602,402.8,487.602,402.8z"/>
</svg>
