<?xml version="1.0" encoding="utf-8"?>
<!-- Generator: Adobe Illustrator 15.1.0, SVG Export Plug-In . SVG Version: 6.00 Build 0)  -->
<!DOCTYPE svg PUBLIC "-//W3C//DTD SVG 1.1//EN" "http://www.w3.org/Graphics/SVG/1.1/DTD/svg11.dtd">
<svg version="1.1" xmlns="http://www.w3.org/2000/svg" xmlns:xlink="http://www.w3.org/1999/xlink" x="0px" y="0px"
	 width="595.28px" height="443.75px" viewBox="0 0 595.28 443.75" enable-background="new 0 0 595.28 443.75" xml:space="preserve">
<g id="Calque_1">
	<g id="Layer_3">
		<rect fill="#010202" width="595.28" height="443.75"/>
	</g>
	<g id="Layer_2">
		<g>
			<path fill="#FFE922" d="M195.333,117.185l3.996,11.732c2.161,6.345,4.092,11.419,4.343,11.419c0.004,0,0.008-0.003,0.011-0.004
				c0.276-0.246,8.097-22.954,8.097-22.954h15.155l-18.285,53.278h-10.534c0,0-11.244-32.474-11.198-32.597l-11.737,32.188h-10.427
				L146.7,117.185l15.082,0.01c0,0,8.262,23.417,8.372,23.417c0,0,0,0,0.001,0l8.244-23.428L195.333,117.185 M141.55,113.495
				l1.66,4.877l18.054,53.062l0.851,2.499h2.64h10.428h2.58l0.883-2.424l8.149-22.349c0.703,2.043,1.461,4.246,2.22,6.446
				c2.806,8.135,5.618,16.254,5.618,16.254l0.859,2.481h2.625h10.534h2.632l0.854-2.49l18.285-53.276l1.676-4.884h-5.163h-15.155
				h-2.629l-0.857,2.486c-1.37,3.979-3.189,9.23-4.744,13.675c-0.234-0.675-0.479-1.383-0.731-2.125l-3.995-11.732l-0.85-2.498
				h-2.64h-16.934h-2.611l-0.867,2.463l-4.816,13.688c-1.591-4.472-3.436-9.685-4.846-13.681l-0.867-2.458l-2.607-0.002
				l-15.081-0.01L141.55,113.495L141.55,113.495z"/>
		</g>
		<g>
			<path fill="#FFE922" d="M428.749,116.978l-0.034,13.964c0,0-15.042-0.05-22.689-0.05c-2.544,0-4.27,0.006-4.352,0.021
				c-1.318,0.239-2.157,3.042-1.784,4.271c0.184,0.623,1.563,2.655,3.056,4.521c1.488,1.867,3.936,4.921,5.428,6.787
				c3.834,4.784,4.36,5.729,4.714,8.475c0.575,4.461-1.533,9.29-5.451,12.474c-3.924,3.193-3.752,3.216-32.894,3.216
				c-0.422,0-0.846,0-1.279,0c-17.723-0.005-27.096-0.152-28.459-0.456c-2.425-0.548-6.286-3.7-16.493-13.492
				c-3.671-3.52-7.054-6.6-7.228-6.601c-0.005,0-0.008,0.002-0.008,0.007l-0.119,20.543l-16.543-0.073l-0.102-52.983h20.861h16.03
				c11.12,0.401,18.645,11.479,17.147,18.543c-0.341,1.604-1.208,3.926-1.927,5.161c-1.479,2.535-5.244,5.787-8.301,7.184
				c-1.127,0.511-2.049,1.105-2.049,1.317c0,0.788,3.715,4.447,5.105,5.027c1.189,0.497,4.649,0.608,19.911,0.608
				c1.788,0,3.414,0.001,4.889,0.001c15.342,0,14.569-0.11,15.754-2.646c0.831-1.765,0.199-2.82-5.64-9.396
				c-7.396-7.36-6.621-10.885-6.672-13.488c-0.105-3.119,2.352-12.935,15.12-12.935L428.749,116.978 M329.644,141.455
				c7.083,0,8.521-0.11,10.028-0.764c5.087-2.212,5.358-8.746,0.479-11.645c-1.068-0.636-2.441-0.742-10.119-0.784l-8.883-0.046
				c0.072,0.069-0.029,12.705-0.029,12.705S323.345,141.455,329.644,141.455 M432.444,113.291h-3.696H394.74
				c-7.387,0-11.756,2.916-14.121,5.362c-3.846,3.979-4.753,8.988-4.683,11.349c0.004,0.197,0.001,0.399-0.001,0.609
				c-0.034,3.838,0.531,8.183,7.677,15.32c1.412,1.591,3.775,4.257,4.668,5.583c-1.953,0.241-6.903,0.241-12.102,0.241h-2.208
				l-2.68-0.001c-9.172,0-16.905-0.027-18.492-0.339c-0.221-0.145-0.531-0.394-0.874-0.69c3.169-1.952,6.373-4.977,7.882-7.563
				c0.916-1.573,1.925-4.259,2.35-6.252c0.939-4.436-0.611-9.787-4.148-14.317c-4.127-5.286-10.131-8.448-16.473-8.676l-0.066-0.003
				h-0.065h-16.032H304.51h-3.693l0.007,3.694l0.102,52.982l0.009,3.664l3.662,0.016l16.543,0.073l3.68,0.017l0.022-3.681
				l0.072-12.307c0.337,0.32,0.686,0.654,1.045,0.999c11.163,10.708,14.911,13.675,18.229,14.425
				c0.912,0.205,2.422,0.54,29.272,0.548h1.28c14.536,0,21.833,0,26.173-0.42c4.972-0.48,6.571-1.607,8.968-3.56l0.079-0.065
				c4.925-4.003,7.522-10.06,6.781-15.805c-0.482-3.738-1.471-5.29-5.493-10.309l-1.195-1.493c-1.401-1.75-3.094-3.864-4.229-5.288
				c-0.915-1.145-1.634-2.161-2.067-2.826c0.569-0.002,1.31-0.002,2.267-0.002c7.555,0,22.527,0.05,22.678,0.051l3.689,0.011
				l0.01-3.69l0.034-13.965L432.444,113.291L432.444,113.291z M324.829,137.634c0.006-0.931,0.012-1.975,0.018-3.021
				c0.004-0.921,0.009-1.846,0.011-2.691l5.154,0.026c2.962,0.016,7.421,0.041,8.29,0.287c1.108,0.674,1.728,1.715,1.66,2.792
				c-0.037,0.583-0.314,1.654-1.76,2.283c-0.808,0.35-2.094,0.459-8.559,0.459C327.593,137.769,326.012,137.709,324.829,137.634
				L324.829,137.634z"/>
		</g>
		<g>
			<path fill="#FFE922" d="M270.993,116.761l18.565,53.417l-15.128,0.069l-2.511-8.022l-27.05-0.217l-2.387,8.032l-14.976-0.157
				l18.331-53.098L270.993,116.761 M258.827,124.593c-0.038,0.153-2.37,6.552-4.71,12.95c-2.359,6.451-4.726,12.902-4.759,12.953
				c0,0.001,0,0.001,0,0.001l0,0c0,0,0,0,0-0.001c0.062-0.019,8.44-0.037,13.81-0.037c2.513,0,4.366,0.004,4.401,0.014
				c0,0.002,0,0.002,0,0.002s0,0,0-0.001c0,0,0,0,0-0.001C267.474,150.228,258.854,124.904,258.827,124.593
				c0.001-0.002,0.001-0.003,0.001-0.003l0,0C258.827,124.59,258.827,124.591,258.827,124.593 M273.614,113.072l-2.624,0.002
				l-25.155,0.024l-2.625,0.001l-0.856,2.482l-18.331,53.099l-1.669,4.835l5.116,0.052l14.976,0.158l2.78,0.029l0.792-2.665
				l1.597-5.374l21.591,0.173l1.708,5.46l0.814,2.598l2.722-0.013l15.128-0.069l5.158-0.023l-1.694-4.873l-18.565-53.416
				L273.614,113.072L273.614,113.072z M254.664,146.775c0.698-1.902,1.639-4.474,2.915-7.966c0.4-1.095,0.767-2.097,1.103-3.017
				c0.306,0.901,0.638,1.882,0.999,2.949c0.298,0.878,1.606,4.731,2.729,8.03C259.073,146.772,256.562,146.773,254.664,146.775
				L254.664,146.775z"/>
		</g>
		<g>
			<path fill="#FFE922" d="M277.25,53.004v13.179h-26.395v40.307H235.12V66.151l-30.81,0.087c-3.713,0-4.211,2.958-4.211,4.092
				c0,1.392,0.908,2.783,5.894,9.096c3.234,4.102,6.207,8.193,6.599,9.087c2.138,4.921-0.626,12.589-5.664,15.704
				c-3.59,2.218-2.977,2.272-29.633,2.272c-1.371,0-2.809,0-4.328,0h-28.694V91.685h45.113l1.331-0.927
				c0.899-0.626,1.42-1.488,1.618-2.668c0.277-1.696,0.134-1.917-5.437-8.193c-6.585-7.419-7.281-8.774-6.94-13.511
				c0.387-5.405,5.207-13.257,13.63-13.257L277.25,53.004 M280.937,49.312l-3.692,0.005l-83.664,0.125
				c-4.819,0-9.295,2.082-12.6,5.862c-2.679,3.065-4.437,7.11-4.703,10.818c-0.448,6.226,0.985,8.476,7.859,16.221
				c1.996,2.247,3.893,4.385,4.526,5.293c-0.01,0.036-0.02,0.06-0.025,0.073c-0.007,0.005-0.018,0.013-0.033,0.023l-0.379,0.264
				h-43.956h-3.687v3.686v14.806v3.686h3.687h28.694h2.275h2.053c13.143,0,19.63-0.012,23.452-0.292
				c4.374-0.321,5.769-1.071,7.859-2.369l0.261-0.162c6.572-4.065,9.958-13.745,7.106-20.31c-0.88-2.008-6.452-9.1-7.085-9.901
				c-1.749-2.215-4.636-5.87-5.093-6.928c0.011-0.089,0.033-0.182,0.056-0.245c0.076-0.019,0.222-0.045,0.461-0.045l27.124-0.077
				v36.642v3.687h3.687h15.736h3.687v-3.687v-36.62h22.708h3.687v-3.687V53.003V49.312L280.937,49.312z"/>
		</g>
		<g>
			<path fill="#FFE922" d="M320.134,53.432l18.514,53.555l-15.1-0.083l-2.451-8.023l-26.929-0.12l-2.406,7.728h-15.377
				l18.312-53.058H320.134 M298.562,87.357l18.34-0.023c0.001,0,0.001,0.001,0.001,0.001c0.062,0-8.913-26.359-8.973-26.377l0,0
				C307.866,60.956,298.355,87.357,298.562,87.357 M322.759,49.746h-2.625h-25.437h-2.628l-0.856,2.484L272.9,105.287l-1.688,4.889
				h5.172h15.376h2.713l0.807-2.591l1.594-5.125l21.489,0.096l1.658,5.426l0.793,2.594l2.713,0.015l15.101,0.083l5.205,0.028
				l-1.699-4.919L323.62,52.228L322.759,49.746L322.759,49.746z M303.684,83.664c1.138-3.238,2.721-7.675,4.154-11.664
				c1.357,3.983,2.86,8.407,3.957,11.654L303.684,83.664L303.684,83.664z"/>
		</g>
		<g>
			<path fill="#FFE922" d="M372.134,53.432c11.944,0,20.234,0.17,21.828,0.447c3.687,0.64,7.018,2.608,9.516,5.631
				c2.613,3.161,3.212,4.672,3.554,9.004c0.488,6.115-2.42,11.391-8.157,14.815c-1.672,1-3.391,1.972-3.82,2.166
				c-0.658,0.299-0.57,0.585,0.608,1.967c0.76,0.89,2.079,2.157,2.927,2.816l1.548,1.203l28.606,0.41l0.281,14.599h-17.539
				c-13.565,0-17.906-0.125-19.178-0.554c-1.904-0.645-6.483-4.525-15.792-13.382l-6.646-6.322l0.07,20.257h-17.069V53.432H372.134
				 M369.619,77.288h9.063c8.821,0,9.097-0.027,10.354-0.973c2.249-1.687,3.046-3.423,2.808-6.091
				c-0.244-2.751-1.305-4.184-3.965-5.336c-1.497-0.654-2.939-0.76-10.008-0.76h-8.253V77.288 M372.134,49.746h-19.261h-3.688v3.687
				v53.058v3.686h3.688h17.069h3.699l-0.014-3.699l-0.04-11.62l0.387,0.368c11.514,10.955,14.91,13.443,17.15,14.202
				c1.721,0.581,4.6,0.749,20.362,0.749h17.538h3.758l-0.072-3.758l-0.28-14.598l-0.068-3.564l-3.564-0.051l-27.372-0.392
				l-0.573-0.446c-0.183-0.143-0.404-0.331-0.641-0.543c0.205-0.122,0.394-0.234,0.556-0.331
				c6.914-4.125,10.537-10.786,9.939-18.272c-0.397-5.05-1.299-7.325-4.387-11.059c-3.033-3.672-7.198-6.128-11.727-6.915
				C392.079,49.811,379.443,49.746,372.134,49.746L372.134,49.746z M373.306,67.814h4.566c6.463,0,7.743,0.107,8.533,0.452
				c1.497,0.649,1.649,0.964,1.767,2.284c0.118,1.312-0.045,1.84-1.346,2.816c-0.044,0.032-0.076,0.057-0.103,0.076
				c-0.86,0.159-4.049,0.159-8.041,0.159h-5.376L373.306,67.814L373.306,67.814z"/>
		</g>
	</g>
</g>
<g id="Calque_2">
	<rect x="179.835" y="14.375" fill="none" width="225.149" height="25"/>
	<text transform="matrix(1 0 0 1 179.8354 28.5752)" fill="#3299CC" font-family="'MyriadPro-Regular'" font-size="20">in a galaxy far, far away....</text>
	<text transform="matrix(0.9516 0 0 1 14.4175 217.8755)"><tspan x="0" y="0" fill="#FFE922" font-family="'MyriadPro-Regular'" font-size="24">A mysterious disease has emerged on planet Naboo. Both</tspan><tspan x="0" y="26" fill="#FFE922" font-family="'MyriadPro-Regular'" font-size="24">infected humans and other extra-terrestrial life forms exp-</tspan><tspan x="0" y="52" fill="#FFE922" font-family="'MyriadPro-Regular'" font-size="24">erience fever, severe headaches, skin rash and mild bleeding</tspan><tspan x="0" y="78" fill="#FFE922" font-family="'MyriadPro-Regular'" font-size="24">symptoms. The FIRST ORDER has sent health experts in the</tspan><tspan x="0" y="104" fill="#FFE922" font-family="'MyriadPro-Regular'" font-size="24">area. They identified the causing agent as being a vector-</tspan><tspan x="0" y="130" fill="#FFE922" font-family="'MyriadPro-Regular'" font-size="24">borne virus: a betavirus transmitted by an autochthonous</tspan><tspan x="0" y="156" fill="#FFE922" font-family="'MyriadPro-Regular'" font-size="24">mosquito species. Estimating the virus incubation period in</tspan><tspan x="0" y="182" fill="#FFE922" font-family="'MyriadPro-Regular'" font-size="24">vertebrate hosts would help to determine the duration of</tspan><tspan x="0" y="208" fill="#FFE922" font-family="'MyriadPro-Regular'" font-size="24">the containment measure.  </tspan></text>
</g>
</svg>
